<svg id="Layer_1" data-name="Layer 1" xmlns="http://www.w3.org/2000/svg" viewBox="0 0 129 32"><defs><style>.cls-1{fill:#ff6c02;}.cls-2{fill:#fff;}.cls-3{fill:#040470;}</style></defs><title>logo</title><rect class="cls-1" width="31.914" height="32" rx="4.654" ry="4.654"/><path class="cls-2" d="M7.142,22.8V9.952H5.006V7.811h3.2a1.07,1.07,0,0,1,1.068,1.07V21.732H22.562L24.7,13.165H11.414V11.023H26.067A1.071,1.071,0,0,1,27.1,12.354L24.43,23.063a1.068,1.068,0,0,1-1.036.811H8.21A1.07,1.07,0,0,1,7.142,22.8v0Z"/><path class="cls-3" d="M50.972,13.345V26.833h-4.1V5.786h3.176L61.033,19.6V5.816h4.1V26.833H61.806Z"/><path class="cls-3" d="M73.232,27.13a5.905,5.905,0,0,1-2.107-.371,5.072,5.072,0,0,1-1.692-1.037,4.83,4.83,0,0,1-1.113-1.557,4.7,4.7,0,0,1-.4-1.956,4.308,4.308,0,0,1,.49-2.031,4.669,4.669,0,0,1,1.365-1.586,6.8,6.8,0,0,1,2.092-1.022,9.137,9.137,0,0,1,2.671-.37,11.47,11.47,0,0,1,2.033.178,8.352,8.352,0,0,1,1.766.5v-0.89a3.112,3.112,0,0,0-.875-2.371,3.645,3.645,0,0,0-2.6-.83,6.874,6.874,0,0,0-2.434.445A11.287,11.287,0,0,0,70,15.539l-1.217-2.52a11.5,11.5,0,0,1,6.47-1.986,7.59,7.59,0,0,1,5.21,1.645,6.027,6.027,0,0,1,1.855,4.757v4.832a1.394,1.394,0,0,0,.223.89,0.973,0.973,0,0,0,.726.3v3.379a8.909,8.909,0,0,1-1.751.207,2.65,2.65,0,0,1-1.736-.5A2.161,2.161,0,0,1,79.02,25.2l-0.09-.859a6.88,6.88,0,0,1-2.523,2.075A7.247,7.247,0,0,1,73.232,27.13Zm1.128-2.905a5.207,5.207,0,0,0,1.914-.355,3.483,3.483,0,0,0,1.41-.949,1.428,1.428,0,0,0,.652-1.126V20.015a9.826,9.826,0,0,0-1.543-.43,8.349,8.349,0,0,0-1.6-.163,4.246,4.246,0,0,0-2.523.7,2.09,2.09,0,0,0-.98,1.764,2.122,2.122,0,0,0,.771,1.675A2.805,2.805,0,0,0,74.36,24.225Z"/><path class="cls-3" d="M110.183,26.833h-3.977V18.118a4.621,4.621,0,0,0-.638-2.728,2.077,2.077,0,0,0-1.766-.859,3.338,3.338,0,0,0-2.226.9,4.976,4.976,0,0,0-1.483,2.357v9.041H96.115V18.118a4.621,4.621,0,0,0-.638-2.728,2.08,2.08,0,0,0-1.767-.859,3.387,3.387,0,0,0-2.211.889A4.842,4.842,0,0,0,90,17.762v9.071H86.024V11.3h3.591v2.875a5.932,5.932,0,0,1,2.359-2.327,7.06,7.06,0,0,1,3.428-.815,4.412,4.412,0,0,1,3.027.949A4.237,4.237,0,0,1,99.8,14.324a6.717,6.717,0,0,1,2.4-2.446,6.5,6.5,0,0,1,3.324-.845,4.625,4.625,0,0,1,2.345.534,3.866,3.866,0,0,1,1.425,1.393,5.836,5.836,0,0,1,.7,1.957,12.862,12.862,0,0,1,.193,2.223v9.693Z"/><path class="cls-3" d="M120.868,27.13a8.643,8.643,0,0,1-3.384-.638,7.632,7.632,0,0,1-4.229-4.283,8.168,8.168,0,0,1-.579-3.054,8.632,8.632,0,0,1,.564-3.127,7.627,7.627,0,0,1,1.632-2.579,7.8,7.8,0,0,1,2.6-1.764,8.657,8.657,0,0,1,3.428-.652,8.445,8.445,0,0,1,3.4.652,7.826,7.826,0,0,1,2.552,1.749,7.439,7.439,0,0,1,1.6,2.549,8.47,8.47,0,0,1,.55,3.023c0,0.258,0,.5-0.015.741a3.1,3.1,0,0,1-.074.593H116.89a4.608,4.608,0,0,0,.446,1.631,4,4,0,0,0,2.2,1.986,4.2,4.2,0,0,0,1.484.267,4.593,4.593,0,0,0,2.24-.578,3.072,3.072,0,0,0,1.44-1.526l3.412,0.948a6.939,6.939,0,0,1-2.745,2.92A8.524,8.524,0,0,1,120.868,27.13Zm4.036-9.368a4.13,4.13,0,0,0-1.291-2.8,4.055,4.055,0,0,0-5.506.015,4.09,4.09,0,0,0-.876,1.215,4.268,4.268,0,0,0-.4,1.571H124.9Z"/></svg>